# xmcd
#
# Track frame offsets: 
#        150
#        21050
#        36474
#        54358
#        70960
#        83692
#        95474
#        113080
#        137104
#        149718
#        170046
#        181648
#        203454
#        221600
#        240923
#        259638
#        272074
#
# Disc length: 3860 seconds
#
# Revision: 10
# Processed by: cddbd v1.5.2PL0 Copyright (c) Steve Scherf et al.
# Submitted via: ExactAudioCopy v1.3
#
DISCID=ed0f1211
DTITLE=Various Artist - Love Together CD2
DYEAR=2003
DGENRE=Pop
TTITLE0=Bertie Higgins - Casablanca
TTITLE1=Minnie Riperton - Lovin' You
TTITLE2=Chicago - If You Leave Me Now
TTITLE3=The Righteous Brothers - Unchained Melody
TTITLE4=England Dan and John Ford Coley - Just Tell Me You Love Me
TTITLE5=Bread - If
TTITLE6=Christopher Cross - Arthur's Theme (Best That You Can Do)
TTITLE7=Don McLean - Vincent
TTITLE8=David Gates - Goodbye Girl
TTITLE9=Eric Carmen - All By Myself
TTITLE10=Dan Seals - Lullaby
TTITLE11=Foreigner - Waiting For A Girl Like You
TTITLE12=Janis Ian - The Other Side Of The Sun
TTITLE13=Loggins and Messina - Danny's Song
TTITLE14=Phil Collins and Marilyn Martin - Separate Lives
TTITLE15=Seals and Crofts - My Fair Share
TTITLE16=Linda Ronstadt - Blue Bayou
EXTD=
EXTT0=
EXTT1=
EXTT2=
EXTT3=
EXTT4=
EXTT5=
EXTT6=
EXTT7=
EXTT8=
EXTT9=
EXTT10=
EXTT11=
EXTT12=
EXTT13=
EXTT14=
EXTT15=
EXTT16=
PLAYORDER=
